<?xml version="1.0" encoding="UTF-8" standalone="no"?>
<svg
   xmlns:dc="http://purl.org/dc/elements/1.1/"
   xmlns:cc="http://creativecommons.org/ns#"
   xmlns:rdf="http://www.w3.org/1999/02/22-rdf-syntax-ns#"
   xmlns:svg="http://www.w3.org/2000/svg"
   xmlns="http://www.w3.org/2000/svg"
   xmlns:xlink="http://www.w3.org/1999/xlink"
   xmlns:sodipodi="http://sodipodi.sourceforge.net/DTD/sodipodi-0.dtd"
   xmlns:inkscape="http://www.inkscape.org/namespaces/inkscape"
   version="1.0"
   x="0px"
   y="0px"
   width="592px"
   height="724px"
   viewBox="0 0 592 724"
   id="svg849"
   sodipodi:docname="OdinPlusTeam.svg"
   inkscape:version="1.0.1 (3bc2e813f5, 2020-09-07)">
  <metadata
     id="metadata855">
    <rdf:RDF>
      <cc:Work
         rdf:about="">
        <dc:format>image/svg+xml</dc:format>
        <dc:type
           rdf:resource="http://purl.org/dc/dcmitype/StillImage" />
        <dc:title></dc:title>
      </cc:Work>
    </rdf:RDF>
  </metadata>
  <defs
     id="defs853">
    <linearGradient
       inkscape:collect="always"
       id="linearGradient1424">
      <stop
         style="stop-color:#000000;stop-opacity:1;"
         offset="0"
         id="stop1420" />
      <stop
         style="stop-color:#00abff;stop-opacity:1"
         offset="1"
         id="stop1422" />
    </linearGradient>
    <linearGradient
       inkscape:collect="always"
       id="linearGradient1072">
      <stop
         style="stop-color:#00abff;stop-opacity:1"
         offset="0"
         id="stop1068" />
      <stop
         style="stop-color:#00abff;stop-opacity:1"
         offset="0.65055889"
         id="stop1391" />
      <stop
         style="stop-color:#000000;stop-opacity:1"
         offset="0.87011027"
         id="stop1393" />
      <stop
         style="stop-color:#000000;stop-opacity:1"
         offset="1"
         id="stop1070" />
    </linearGradient>
    <radialGradient
       inkscape:collect="always"
       xlink:href="#linearGradient1072"
       id="radialGradient1389"
       cx="285.21655"
       cy="507.36163"
       fx="285.21655"
       fy="507.36163"
       r="285.4252"
       gradientTransform="matrix(1.3695547,0.00189606,-5.6986285e-4,0.41161999,-105.69551,66.815034)"
       gradientUnits="userSpaceOnUse" />
    <linearGradient
       inkscape:collect="always"
       xlink:href="#linearGradient1424"
       id="linearGradient1426"
       x1="458.50992"
       y1="413.0249"
       x2="439.89859"
       y2="453.37973"
       gradientUnits="userSpaceOnUse" />
    <linearGradient
       inkscape:collect="always"
       xlink:href="#linearGradient1424"
       id="linearGradient1428"
       x1="458.50992"
       y1="413.0249"
       x2="439.89859"
       y2="453.37973"
       gradientUnits="userSpaceOnUse" />
  </defs>
  <sodipodi:namedview
     pagecolor="#ffffff"
     bordercolor="#666666"
     borderopacity="1"
     objecttolerance="10"
     gridtolerance="10"
     guidetolerance="10"
     inkscape:pageopacity="0"
     inkscape:pageshadow="2"
     inkscape:window-width="1920"
     inkscape:window-height="986"
     id="namedview851"
     showgrid="false"
     inkscape:zoom="1.9127176"
     inkscape:cx="250.79711"
     inkscape:cy="281.46498"
     inkscape:window-x="-11"
     inkscape:window-y="-11"
     inkscape:window-maximized="1"
     inkscape:current-layer="layer1" />
  <g
     id="blender_frame_1"
     style="fill-opacity:1;fill:url(#linearGradient1426);stroke:#a7e2ff;stroke-opacity:1">
    <g
       id="blender_object_GPencil.003"
       style="fill-opacity:1;fill:url(#linearGradient1426);stroke:#a7e2ff;stroke-opacity:1">
      <!--Layer: GP_Layer-->
      <g
         id="GP_Layer"
         style="fill-opacity:1;fill:url(#linearGradient1426);stroke:#a7e2ff;stroke-opacity:1">
        <polygon
           stroke="#CBCBCB"
           stroke-opacity="1"
           fill="none"
           stroke-linecap="round"
           stroke-width="2"
           points="22.655457,346.536469 31.645691,316.720795 42.422180,287.222992 54.970947,258.201294 69.259216,229.813782 85.235962,202.214844 102.831665,175.553162 121.959778,149.968506 142.517883,125.589844 164.389771,102.532715 187.447449,80.897766 211.553223,60.769043 236.562927,42.213440 288.698608,10.000000 315.993774,24.953979 342.710205,41.618225 368.692810,59.964478 393.786987,79.946045 417.843018,101.497742 440.717041,124.536194 462.274414,148.960999 482.392944,174.655823 500.964233,201.490295 517.895996,229.322205 533.113281,258.000092 546.559937,287.365845 558.199219,317.257538 568.013428,347.512451 576.003540,377.969330 582.188721,408.471649 564.026733,406.039001 545.361450,405.609406 526.528076,407.287476 507.885010,411.101807 489.792725,416.999603 472.590698,424.848572 456.576538,434.446686 441.989868,445.537476 428.610474,432.841370 418.610352,417.343140 448.181885,399.600250 502.773682,372.632782 410.560547,223.070679 405.578491,215.113525 399.187988,207.745239 391.505127,201.323608 382.764099,196.168152 373.296997,192.513062 363.493774,190.473572 353.750244,190.034973 344.419006,191.066162 335.351501,193.499268 326.434753,197.451599 318.044678,202.916748 310.555237,209.764587 304.287781,217.746094 299.466614,226.522095 296.193542,235.709961 294.446716,244.934204 292.299500,235.786316 288.681152,226.745850 283.589417,218.163391 277.133667,210.390381 269.531006,203.734558 261.083923,198.421326 252.140747,194.569092 243.051758,192.184692 233.711182,191.161682 223.981628,191.561646 214.193237,193.503296 204.713562,197.000854 195.905151,201.951782 188.081421,208.146301 181.469849,215.295349 176.193726,223.070801 95.253723,363.885986 161.338440,395.657471 189.924255,417.343201 181.282593,436.442841 168.271545,452.880096 165.622009,450.909882 148.748047,439.492340 130.700073,429.509003 111.666748,421.129456 91.867920,414.488586 71.546204,409.680359 50.957092,406.752960 30.358398,405.707764 10.000000,406.500366 16.327698,376.518402 22.528870,347.136108"
           id="polygon833"
           style="fill-opacity:1;fill:url(#linearGradient1426);stroke:#a7e2ff;stroke-opacity:1" />
        <polygon
           stroke="#CBCBCB"
           stroke-opacity="1"
           fill="none"
           stroke-linecap="round"
           stroke-width="2"
           points="185.341675,428.972321 189.924255,417.343201 193.240540,408.875763 197.885437,400.709473 203.813416,393.149719 210.886536,386.488037 218.882690,380.967865 227.516785,376.755829 236.475220,373.925507 245.449524,372.457306 254.541321,372.269409 263.864929,373.423889 273.121094,375.996002 281.987549,379.970428 290.153931,385.235107 297.357544,391.591187 303.409546,398.776886 308.210144,406.500275 319.597595,394.869781 334.014038,386.205078 350.168945,381.521515 366.439758,381.075714 382.312988,384.678558 397.247925,392.415527 409.703247,403.719421 418.610352,417.343140 424.695557,427.697815 432.647949,437.340820 442.328247,445.787842 453.433472,452.601624 465.523560,457.458588 478.075562,460.197754 490.558350,460.836670 502.499878,459.552124 498.981934,469.643311 493.904297,479.440308 487.307129,488.589050 479.336304,496.747192 470.236572,503.623657 460.327881,509.012268 449.967896,512.811401 439.513062,515.026428 406.780640,507.868774 375.463928,494.235718 347.425232,474.731689 324.155273,450.624268 319.568848,446.006897 313.925781,442.438965 307.622620,440.237793 301.154541,439.516663 294.686401,440.237793 288.383362,442.438965 282.740295,446.006897 278.153748,450.624268 269.813843,463.853210 259.391907,476.161377 247.056396,487.076721 233.114624,496.177002 217.991333,503.138916 202.185913,507.775208 186.219238,510.050293 170.580933,510.072510 162.103210,510.175598 153.415405,509.011597 144.803589,506.510254 136.575195,502.689087 129.025024,497.658813 122.401306,491.613403 116.879333,484.806152 112.548157,477.517578 124.947632,475.940002 137.402893,472.428650 149.463379,466.935150 160.663147,459.552216 170.576843,450.515472 178.871277,440.179291 185.276978,429.084381"
           id="polygon835"
           style="fill-opacity:1;fill:url(#linearGradient1426);stroke:#a7e2ff;stroke-opacity:1" />
        <polygon
           stroke="#CBCBCB"
           stroke-opacity="1"
           fill="none"
           stroke-linecap="round"
           stroke-width="2"
           points="194.643250,544.042847 194.643250,565.601013 209.110840,578.001709 209.110840,598.987549 250.146545,634.161011 296.554382,702.571350 305.047058,714.177124 313.539734,702.571350 379.327942,625.818237 394.292480,615.666687 410.918457,596.269775 417.573975,571.643738 439.513062,515.026428 406.780640,507.868774 375.463928,494.235718 347.425232,474.731689 324.155273,450.624268 319.568848,446.006897 313.925781,442.438965 307.622620,440.237793 301.154541,439.516663 294.686401,440.237793 288.383362,442.438965 282.740295,446.006897 278.153748,450.624268 269.813843,463.853210 259.391907,476.161377 247.056396,487.076721 233.114624,496.177002 217.991333,503.138916 202.185913,507.775208 186.219238,510.050293 170.580933,510.072510 179.781128,531.304016"
           id="polygon837"
           style="fill-opacity:1;fill:url(#linearGradient1426);stroke:#a7e2ff;stroke-opacity:1" />
      </g>
    </g>
  </g>
  <g
     id="g847"
     style="fill-opacity:1;fill:url(#linearGradient1428)">
    <g
       id="blender_object_GPencil.004"
       style="fill-opacity:1.0;fill:url(#linearGradient1428)">
      <!--Layer: GP_Layer-->
      <g
         id="g844"
         style="fill-opacity:1.0;fill:url(#linearGradient1428)">
        <polygon
           stroke="#CBCBCB"
           stroke-opacity="1"
           fill="none"
           stroke-linecap="round"
           stroke-width="2"
           points="350.267639,354.604187 354.446289,354.750214 358.730164,354.508545 363.049072,353.892090 367.335571,352.924835 375.566589,350.076996 383.022583,346.294983 389.924805,341.577606 396.380981,335.731354 399.290771,332.438782 401.908813,328.948730 404.181396,325.309418 406.063354,321.575714 407.521729,317.806824 408.536499,314.062927 409.102173,310.402283 409.227295,306.878082 408.933228,303.536377 408.252197,300.413971 407.223755,297.538269 405.893311,294.926666 404.243652,292.503937 402.217163,290.219055 399.807617,288.119934 397.019165,286.254730 393.869385,284.669189 390.388062,283.404144 386.617554,282.492859 382.611816,281.958374 378.433105,281.812408 374.149414,282.054077 369.830322,282.670532 365.544006,283.637726 357.312927,286.485565 349.856995,290.267609 342.954773,294.984924 336.498535,300.831177 333.588623,304.123840 330.970642,307.613831 328.698181,311.253143 326.816040,314.986816 325.357849,318.755768 324.343018,322.499695 323.777466,326.160309 323.652283,329.684479 323.946167,333.026245 324.627380,336.148560 325.655701,339.024353 326.986267,341.635925 328.635742,344.058594 330.662292,346.343475 333.072021,348.442627 335.860291,350.307861 339.010132,351.893402 342.491577,353.158386 346.262024,354.069733"
           id="polygon842"
           style="fill-opacity:1.0;fill:url(#linearGradient1428)" />
      </g>
    </g>
  </g>
  <g
     inkscape:groupmode="layer"
     id="layer1"
     inkscape:label="Layer 1">
    <g
       aria-label="Odinplus team"
       id="text1044"
       style="font-style:normal;font-variant:normal;font-weight:bold;font-stretch:normal;font-size:109.048px;line-height:1.25;font-family:Norse;-inkscape-font-specification:'Norse Bold';fill:url(#radialGradient1389);fill-opacity:1;stroke:#94dcff;stroke-width:1.0015748;stroke-opacity:1;stroke-miterlimit:4;stroke-dasharray:none">
      <path
         d="m 13.566958,194.51322 -0.839061,0.52065 -3.6423313,1.73575 0.1315027,0.78292 0.8167186,3.23471 -0.1122927,0.7783 1.0173137,15.82285 1.008242,0.84829 -1.162087,2.12416 0.829665,15.42908 -0.55297,0.86751 3.152353,6.10798 4.755116,3.89462 7.531429,6.67868 5.8618,4.696 1.082855,-0.51603 0.502184,1.81424 7.526812,6.92247 1.646545,3.20165 9.005079,-4.17057 -0.319151,-1.17668 -0.319895,-3.71307 -0.688928,-15.13376 0.01237,-5.80417 -0.652154,-1.62197 0.318409,-1.35971 0.179319,-12.0444 -2.284848,-5.55501 -6.818512,-5.68965 -5.472651,-4.63985 -0.984414,0.46912 -1.758837,-2.42336 -10.884539,-9.91265 -4.549,-4.47603 z m 28.813336,59.95543 -9.726327,-9.25662 -3.892229,-3.09786 -2.625599,-0.43993 0.421468,-1.65042 -2.246427,-2.43259 -2.827842,-2.63871 -0.661388,-1.13438 -0.785884,-10.01407 -1.439686,-1.24668 1.190531,-1.05053 -1.387995,-16.85418 1.481981,1.58892 5.125797,4.92594 2.28798,0.23844 -0.323026,1.6035 8.577349,8.11301 2.776312,2.78406 1.960337,2.08574 0.805837,14.11166 0.942862,1.72504 0.09844,-0.0469 -0.61835,1.74425 1.775658,11.83754 z"
         style="font-style:normal;font-variant:normal;font-weight:bold;font-stretch:normal;font-family:Norse;-inkscape-font-specification:'Norse Bold';fill:url(#radialGradient1389);fill-opacity:1;stroke:#94dcff;stroke-width:1.0015748;stroke-opacity:1;stroke-miterlimit:4;stroke-dasharray:none"
         id="path1395" />
      <path
         d="m 89.257529,239.13634 0.96798,-8.57758 4.730642,-20.0159 0.738479,-3.74297 -2.799484,-7.45281 -2.696493,-1.6948 0.176487,0.16826 -11.528861,-7.55482 -4.366991,-3.75904 -4.884006,-2.29795 -2.347733,-2.9794 -9.501371,-6.43044 -4.846669,3.5996 -3.931506,2.92237 1.469514,3.75923 2.228867,5.22434 1.506261,0.96435 -0.324064,2.31883 9.781832,26.84409 2.056398,3.77972 7.659779,23.20392 -0.03694,-0.1026 2.270025,6.94805 7.001453,-1.47795 3.718272,-0.29574 z M 67.848254,203.498 l -5.664625,-14.76608 0.874201,0.49654 16.031378,12.65588 2.643085,0.90271 1.297045,2.31462 2.844267,2.10519 -0.775423,3.64037 -1.353879,6.86211 -1.31674,9.86218 1.153288,0.62784 -1.514296,1.58838 -1.891375,8.91008 -0.02871,0.24214 -1.892357,-5.57731 -6.904443,-20.46245 -3.377941,-4.23107 z"
         style="font-style:normal;font-variant:normal;font-weight:bold;font-stretch:normal;font-family:Norse;-inkscape-font-specification:'Norse Bold';fill:url(#radialGradient1389);fill-opacity:1;stroke:#94dcff;stroke-width:1.0015748;stroke-opacity:1;stroke-miterlimit:4;stroke-dasharray:none"
         id="path1397" />
      <path
         d="m 105.09968,195.05291 1.35307,5.85218 0.62551,3.33818 5.66887,19.58817 1.09134,3.77099 1.77234,1.41696 -0.6507,2.45877 1.23153,9.74712 4.8488,-1.28973 2.23005,-0.53186 4.18458,-2.80035 -1.0169,-3.90605 -0.78548,-1.92961 -0.66423,-1.51061 -8.3972,-29.01564 -1.36445,-0.39979 0.30613,-2.47257 -0.96737,-2.55811 -1.60127,-3.96398 -1.23181,-5.43317 -3.65699,-13.81314 -0.23413,-2.77031 -1.68923,-7.7983 -6.929982,1.55147 -4.832287,1.73904 2.03949,5.08591 1.09432,0.25091 -0.29233,2.12801 6.377209,20.85898 z"
         style="font-style:normal;font-variant:normal;font-weight:bold;font-stretch:normal;font-family:Norse;-inkscape-font-specification:'Norse Bold';fill:url(#radialGradient1389);fill-opacity:1;stroke:#94dcff;stroke-width:1.0015748;stroke-opacity:1;stroke-miterlimit:4;stroke-dasharray:none"
         id="path1399" />
      <path
         d="m 175.32012,216.75295 -0.74458,-3.40917 -5.84148,-23.16865 -1.93976,-3.25976 -0.12496,-4.66068 -4.6586,-26.4407 -1.36916,-7.29103 -4.53088,0.20824 -6.15586,1.45609 1.86145,8.52293 1.39112,1.25883 -0.34405,3.53532 2.00106,9.16215 -4.77219,-4.98513 -0.94537,-0.24 -3.59414,-3.67976 -12.47355,-11.11642 -7.90449,4.18199 1.20994,5.53991 2.84603,10.98674 1.75243,5.97952 4.41363,22.25269 1.42419,1.92132 -0.17751,3.27571 2.66485,15.26781 0.39556,1.81113 0.52903,0.88902 1.11569,8.68581 4.76722,-0.14823 6.23913,-1.5859 -1.27609,-6.86488 -0.64536,-1.42171 -2.31335,-11.10308 -1.84302,-3.83898 -0.30497,-3.95166 -5.09207,-24.33689 -1.58092,-1.10576 -0.15308,-0.18981 0.65386,-4.16107 -1.25648,-5.75298 3.60761,3.23035 5.69429,5.11859 3.90395,3.05401 2.00341,2.01805 1.84053,1.2723 2.33283,2.5042 2.52642,11.05654 0.76171,1.95439 -0.20327,0.60249 2.1272,10.25079 2.31701,10.09771 1.70838,8.33313 3.66879,-0.57804 5.83624,-1.38629 0.59386,-3.92473 z"
         style="font-style:normal;font-variant:normal;font-weight:bold;font-stretch:normal;font-family:Norse;-inkscape-font-specification:'Norse Bold';fill:url(#radialGradient1389);fill-opacity:1;stroke:#94dcff;stroke-width:1.0015748;stroke-opacity:1;stroke-miterlimit:4;stroke-dasharray:none"
         id="path1401" />
      <path
         d="m 211.0836,178.69481 2.99125,-3.82844 2.77822,-4.56952 -0.81921,-7.48276 -12.8835,-10.32087 -2.37325,-0.441 -0.6871,-1.77618 -11.11629,-8.69472 -3.27631,1.77624 -4.86946,2.98838 1.22124,7.20673 1.15519,4.35343 2.46054,17.7138 -0.14101,0.57006 3.64281,27.01775 1.49118,1.2241 -0.507,3.48337 0.95735,15.6106 6.35465,-0.22212 5.35554,-1.0742 -2.50847,-13.30334 -1.93822,-1.2721 1.3681,-2.83232 -1.25125,-7.42275 0.82206,-1.21513 6.09649,-9.21406 z m -15.81772,-5.28929 -1.48819,-1.99518 0.61501,-3.49838 -0.82817,-5.16952 -0.95722,-7.68378 7.23985,6.15052 1.06212,0.51304 0.96612,1.40713 5.36463,4.53938 -1.3831,2.72431 -0.70503,2.8503 -1.23313,-0.15899 -4.51535,7.12281 -2.66722,3.78343 z"
         style="font-style:normal;font-variant:normal;font-weight:bold;font-stretch:normal;font-family:Norse;-inkscape-font-specification:'Norse Bold';fill:url(#radialGradient1389);fill-opacity:1;stroke:#94dcff;stroke-width:1.0015748;stroke-opacity:1;stroke-miterlimit:4;stroke-dasharray:none"
         id="path1403" />
      <path
         d="m 250.67673,207.47352 -8.24857,0.8329 -0.23483,-3.15366 -1.00181,-7.5799 0.10065,-0.11684 -0.88496,-7.47925 -0.71144,-6.61737 -1.41023,-1.31654 1.05856,-1.93777 -0.39678,-5.3286 -0.23823,-12.01075 -0.58068,-12.20395 0.15968,-3.72978 -0.41759,-7.07665 -2.90492,-2.29874 -3.52387,1.13719 -5.65484,0.42107 1.64385,11.79673 1.78044,0.41418 -1.27605,1.95396 2.85726,35.43531 0.57485,17.99992 1.18116,2.6458 -1.26795,2.06271 0.76812,7.3786 4.9098,-0.14689 4.72009,-1.22627 1.02731,0.57961 4.67612,-0.34819 1.51435,-0.22211 8.30526,-0.0717 1.47735,-2.18766 -0.0752,-6.88344 -0.49629,-2.2594 -5.09491,0.59808 z"
         style="font-style:normal;font-variant:normal;font-weight:bold;font-stretch:normal;font-family:Norse;-inkscape-font-specification:'Norse Bold';fill:url(#radialGradient1389);fill-opacity:1;stroke:#94dcff;stroke-width:1.0015748;stroke-opacity:1;stroke-miterlimit:4;stroke-dasharray:none"
         id="path1405" />
      <path
         d="m 269.64937,197.28275 1.09425,1.19609 -1.52048,1.96766 -0.311,5.12627 0.12623,5.45202 6.56071,5.64986 6.87033,0.0874 3.48368,-1.8648 8.27421,-4.27896 0.2205,0.76264 0.89093,5.88582 10.5721,-1.77808 -1.55346,-8.5009 -0.69447,-12.75649 0.14183,-24.20922 -0.5552,-3.16066 -1.09391,-1.08704 1.08464,-1.85724 0.10424,-1.52701 0.1992,-5.99829 0.741,-7.09049 -1.09425,-1.19609 1.19746,-0.65806 0.30859,-5.8896 -0.67112,-5.34126 -5.01652,-0.0933 -5.45203,0.12623 -0.19371,7.74305 0.47948,13.73861 0.0285,9.05094 0.69619,13.30173 -0.28351,13.85005 -0.41386,7.08946 -8.92987,3.84483 -3.59445,1.31991 -0.87272,-0.1063 -1.20261,-0.97765 -0.1142,-1.63537 -0.80353,-12.75615 0.7228,-12.87 -0.24386,-8.17787 -0.12176,-4.03441 -0.12072,-3.70727 0.75027,-4.14621 -1.09803,-2.39561 -0.11523,-1.96251 1.07811,-3.92915 0.31615,-3.49054 0.0785,-9.70557 -9.81496,-0.18718 -1.4049,4.03922 0.70959,17.55458 0.55589,3.37876 -0.86517,2.29274 -0.0847,7.74271 0.80078,11.88377 z"
         style="font-style:normal;font-variant:normal;font-weight:bold;font-stretch:normal;font-family:Norse;-inkscape-font-specification:'Norse Bold';fill:url(#radialGradient1389);fill-opacity:1;stroke:#94dcff;stroke-width:1.0015748;stroke-opacity:1;stroke-miterlimit:4;stroke-dasharray:none"
         id="path1407" />
      <path
         d="m 328.66984,198.07976 0.1374,1.21143 -3.14129,1.21029 c -0.72574,1.04429 -1.33538,1.98707 -2.06112,3.03136 -1.08131,1.45764 -1.92315,2.60344 -3.11326,4.05378 l -2.19123,1.71113 -1.90184,3.91638 8.55007,6.14689 3.17832,-3.39366 1.43016,-3.40153 -0.13797,0.42793 c 0.37016,-0.63095 0.75491,-1.47951 1.24116,-2.21197 l 4.74589,-5.58376 6.35664,-6.78733 4.34713,-6.15695 0.35112,-8.50129 -2.79188,-2.37294 -9.48442,-10.14404 -1.66795,-1.2047 -1.87041,-3.07625 -1.89958,-2.64102 3.55577,-4.13342 0.26865,-0.74705 1.19012,-1.45034 6.69034,-6.87426 1.11048,-1.89285 3.01848,-2.63933 3.22936,-4.15529 -6.07674,-5.54397 -3.24225,-0.54515 -2.90295,4.17716 c -0.13067,0.31912 0.26809,0.89231 0.0213,1.31294 l -2.27086,1.26863 -3.0841,3.61856 0.1374,1.21143 -5.97919,6.04757 -5.84179,7.25901 -0.35055,6.86194 4.8799,5.46377 7.86022,8.28651 2.11046,1.12506 3.40039,4.70887 z"
         style="font-style:normal;font-variant:normal;font-weight:bold;font-stretch:normal;font-family:Norse;-inkscape-font-specification:'Norse Bold';fill:url(#radialGradient1389);fill-opacity:1;stroke:#94dcff;stroke-width:1.0015748;stroke-opacity:1;stroke-miterlimit:4;stroke-dasharray:none"
         id="path1409" />
      <path
         d="m 407.57,146.60967 -5.00135,-0.50587 c -1.5057,-0.25215 -2.90385,-0.4863 -4.4991,-0.86402 -0.8604,-0.14408 -1.95443,0.44667 -2.59973,0.3386 l -1.89937,-1.20261 -10.34232,-2.28484 -1.79957,8.76509 1.07447,1.50674 6.59659,0.88358 c 0.32265,0.054 0.98597,0.0546 1.77484,-0.0345 l 0.62781,-0.4477 2.31207,0.7189 -0.0932,4.51763 -1.58291,6.81117 -0.20123,5.16293 -4.21203,21.8502 -3.07732,15.07454 0.78784,1.2376 -2.74796,6.5055 -1.38686,8.28137 5.55608,1.81499 3.10146,-0.0334 3.40714,-1.19848 0.41839,-7.78016 3.3861,-20.21946 -0.94839,-2.25959 0.12556,-0.0895 2.04862,-6.29091 1.27931,-8.29938 0.30619,-1.82836 c 0.12608,-0.75285 0.18063,-1.73882 0.32472,-2.59922 5.2e-4,-0.66331 0.45079,-3.35207 0.61289,-4.32002 l 1.54793,-7.9227 -0.034,-2.43815 1.40177,-4.40904 3.33406,0.55834 3.19048,0.75544 1.02147,0.50276 4.83976,0.8105 1.16918,-5.00083 0.11117,-4.62518 z"
         style="font-style:normal;font-variant:normal;font-weight:bold;font-stretch:normal;font-family:Norse;-inkscape-font-specification:'Norse Bold';fill:url(#radialGradient1389);fill-opacity:1;stroke:#94dcff;stroke-width:1.0015748;stroke-opacity:1;stroke-miterlimit:4;stroke-dasharray:none"
         id="path1411" />
      <path
         d="m 455.79356,167.47957 1.62586,-5.89031 0.87844,-4.16259 -10.52773,-2.39311 -4.3393,-0.13585 -1.28324,-1.2021 -6.04689,-1.43894 -5.1375,-0.54997 -1.26192,7.65831 0.83876,1.6568 -1.59609,1.52577 -1.18138,5.43562 -2.07515,8.24944 -1.86809,7.85035 -1.2523,3.84944 -1.65051,10.70444 -0.6263,0.74771 -1.25711,5.75388 -0.58062,2.43997 0.65184,1.50023 -1.92939,2.45529 -1.26733,4.8547 -0.1716,1.19219 -2.35313,7.06236 -0.5046,4.47574 7.93119,1.99942 0.97491,-0.32847 3.713,0.88355 5.89542,2.07545 6.97641,1.77221 2.69242,-0.48023 1.35839,-3.8242 1.47439,-5.2538 -5.27904,-1.3683 -2.8541,0.21757 -8.51211,-1.91346 -0.79819,-0.41413 -0.90429,-0.43937 2.23654,-10.34081 -0.0556,-0.23741 0.54546,-0.87904 0.0956,-3.22796 3.02452,-10.82585 1.69737,0.40391 6.63292,1.80257 5.14771,1.44915 1.24719,-4.29903 1.39385,-3.0311 -0.74801,-2.98033 -5.53659,-0.75703 -4.18783,-0.77236 -3.87469,-1.14622 0.77236,-4.18783 -0.8589,-1.10113 1.62134,-1.63186 1.28776,-3.05635 2.4992,-10.50248 0.84328,-2.60166 0.27769,-1.16694 0.95477,0.2272 5.78423,1.60061 1.7731,0.0857 0.34351,-0.0304 2.3441,1.45455 z"
         style="font-style:normal;font-variant:normal;font-weight:bold;font-stretch:normal;font-family:Norse;-inkscape-font-specification:'Norse Bold';fill:url(#radialGradient1389);fill-opacity:1;stroke:#94dcff;stroke-width:1.0015748;stroke-opacity:1;stroke-miterlimit:4;stroke-dasharray:none"
         id="path1413" />
      <path
         d="m 480.06317,224.49313 -0.27605,3.69252 0.73279,0.92429 -1.16536,0.76952 -0.52351,3.03959 -2.87466,13.51054 1.46237,1.50377 1.34899,0.43578 8.48334,-0.01 0.29995,-4.83076 -1.02019,-2.1631 0.89078,-0.62902 1.07414,-6.87259 0.52325,-10.48846 0.46929,-1.45275 3.09768,-26.61711 -0.94353,-1.33616 1.32976,-1.63318 1.80813,-16.94919 -0.0799,-1.17176 -0.0431,-0.93071 1.277,-3.59836 -1.49589,-1.4 -8.64307,-2.33365 -3.1495,6.20218 -2.34179,4.05657 -2.06721,3.91608 0.63863,1.92525 -2.57177,1.57575 -7.60485,12.89929 -0.60337,1.86783 -1.32655,1.978 -0.9482,1.87103 -6.19844,12.09305 -0.56665,2.10889 -1.51018,0.77271 -3.1495,6.20218 -6.8913,11.75464 2.89442,3.45613 6.2325,2.70091 3.38735,-6.58373 0.21221,-3.14015 1.30264,-0.83976 3.52144,-6.9988 2.34353,-0.15973 1.068,-0.11338 7.48879,0.58561 2.54466,-0.78233 0.10376,0.0335 1.5198,0.26176 z m -1.87037,-26.84681 0.0175,-1.8279 1.20528,-0.18363 6.16492,-11.98928 -1.9967,11.50223 -0.1883,2.00191 -1.32802,5.53002 -1.5449,11.87737 -3.14015,-0.21221 -7.41535,-0.1035 0.33842,-0.69286 3.42408,-6.34267 -0.13729,0.0702 z"
         style="font-style:normal;font-variant:normal;font-weight:bold;font-stretch:normal;font-family:Norse;-inkscape-font-specification:'Norse Bold';fill:url(#radialGradient1389);fill-opacity:1;stroke:#94dcff;stroke-width:1.0015748;stroke-opacity:1;stroke-miterlimit:4;stroke-dasharray:none"
         id="path1415" />
      <path
         d="m 535.84077,193.9289 -0.44593,-11.0614 -3.90764,-1.14327 -4.41662,-1.60867 -2.38459,5.62292 -0.34399,1.04053 0.31986,1.69428 -0.12219,0.54244 -1.41799,1.03976 -1.87483,5.01432 -1.87483,5.01432 -4.0921,8.92118 1.1059,1.80557 -2.34801,0.98371 -12.79695,27.12855 -1.15338,2.59005 -0.88722,1.99234 -0.1681,2.79006 -2.93638,3.10915 -0.88878,4.14034 9.45274,3.97068 1.90752,-4.28353 6.32181,-14.73245 5.60193,-14.45616 1.45146,-1.38296 6.1218,-13.74717 -0.0553,-0.14398 0.0444,-0.0996 3.17142,-6.58563 0.27316,5.01588 -0.0124,1.9044 0.0436,0.97438 0.30585,5.74667 2.6453,1.29736 3.89674,0.89967 2.99164,-2.96516 2.35968,-1.81412 0.44361,-0.99617 2.66943,-1.43745 1.60633,-1.19462 -1.24289,3.86328 -10.36799,21.40601 -1.64213,4.75983 0.65218,1.48414 -1.99391,1.26078 -4.74661,10.65904 -3.62514,6.2642 -1.60867,4.41662 1.7254,2.55892 8.44567,3.28349 2.19703,-6.54205 1.22032,-3.27647 1.74253,-5.78947 3.29282,-6.05408 13.48727,-32.43161 -0.37512,-1.83824 2.21571,-1.75887 7.26273,-14.43281 -2.15733,-2.39315 -4.482,-3.07024 -9.03949,6.35993 0.0428,2.04838 -1.71607,-0.16733 -5.76068,4.35824 -2.84687,1.83591 -0.0553,-0.14397 z"
         style="font-style:normal;font-variant:normal;font-weight:bold;font-stretch:normal;font-family:Norse;-inkscape-font-specification:'Norse Bold';fill:url(#radialGradient1389);fill-opacity:1;stroke:#94dcff;stroke-width:1.0015748;stroke-opacity:1;stroke-miterlimit:4;stroke-dasharray:none"
         id="path1417" />
    </g>
  </g>
</svg>
