<?xml version="1.0" standalone="no"?>
<!DOCTYPE svg PUBLIC "-//W3C//DTD SVG 20010904//EN"
 "http://www.w3.org/TR/2001/REC-SVG-20010904/DTD/svg10.dtd">
<svg version="1.0" xmlns="http://www.w3.org/2000/svg"
 width="574.000000pt" height="707.000000pt" viewBox="0 0 574.000000 707.000000"
 preserveAspectRatio="xMidYMid meet">

<g transform="translate(0.000000,707.000000) scale(0.100000,-0.100000)"
fill="#000000" stroke="none">
<path d="M2645 6947 c-447 -276 -624 -407 -957 -714 -667 -614 -1208 -1472
-1470 -2333 -37 -119 -123 -470 -163 -664 l-23 -111 27 -6 c14 -4 73 -7 131
-8 294 -3 538 -44 786 -132 114 -40 352 -159 485 -241 57 -36 110 -68 117 -72
18 -11 37 8 92 89 61 90 123 213 114 226 -3 6 -63 53 -133 105 -110 83 -166
115 -447 254 -176 87 -326 166 -333 174 -15 18 2 48 444 821 366 638 373 650
453 729 119 117 214 164 376 187 217 30 443 -59 576 -226 50 -63 110 -166 124
-215 6 -22 10 -17 30 40 62 178 224 334 406 391 214 67 466 6 620 -150 73 -75
134 -169 654 -1016 186 -302 351 -570 367 -594 l28 -45 -21 -15 c-11 -8 -134
-72 -272 -143 -243 -125 -481 -255 -520 -283 -18 -14 -18 -15 7 -57 58 -97
179 -219 202 -202 265 192 459 284 736 346 94 21 128 23 362 23 234 -1 257 1
257 16 0 28 -38 205 -81 374 -50 195 -167 551 -245 740 -78 189 -253 538 -356
710 -256 427 -505 745 -862 1100 -320 319 -624 560 -996 789 -78 49 -356 206
-362 206 -2 0 -70 -42 -153 -93z"/>
<path d="M3570 4314 c-174 -46 -342 -189 -396 -336 -9 -24 -16 -72 -16 -108
-1 -105 46 -175 147 -222 70 -32 211 -32 305 0 208 71 367 247 378 417 13 195
-183 311 -418 249z"/>
<path d="M2311 3410 c-41 -6 -96 -25 -158 -55 -134 -65 -223 -154 -286 -285
-25 -52 -70 -147 -100 -211 -47 -97 -69 -130 -133 -198 -43 -45 -105 -102
-140 -127 -112 -80 -300 -154 -390 -154 -17 0 -33 -3 -37 -6 -22 -23 143 -189
233 -234 118 -59 141 -62 378 -57 236 4 296 15 448 78 181 75 362 226 490 406
120 169 156 195 286 201 132 7 162 -11 356 -203 224 -223 394 -337 657 -440
90 -35 282 -84 361 -92 126 -12 311 73 439 202 81 81 169 214 181 272 l6 30
-129 6 c-185 9 -306 48 -436 141 -90 63 -154 136 -250 282 -166 251 -309 346
-542 360 -177 11 -319 -41 -467 -171 -48 -41 -88 -75 -91 -75 -3 0 -19 22 -37
49 -41 65 -152 170 -221 209 -116 66 -270 92 -418 72z"/>
<path d="M2870 2741 c-96 -22 -113 -37 -228 -191 -217 -293 -438 -432 -780
-491 -63 -10 -136 -19 -163 -19 -35 0 -49 -4 -49 -14 0 -7 15 -47 34 -88 28
-62 47 -87 110 -144 l76 -69 0 -106 0 -107 69 -59 70 -58 0 -107 1 -107 208
-179 207 -179 199 -294 c260 -383 328 -480 336 -477 4 2 34 37 68 78 167 209
567 666 655 750 54 52 148 144 208 204 98 98 111 115 125 165 30 110 89 279
175 511 48 129 87 236 86 237 -1 1 -54 13 -117 27 -374 84 -629 227 -930 522
-85 83 -173 160 -195 172 -48 24 -117 33 -165 23z"/>
</g>
</svg>
